# xmcd
#
# Track frame offsets:
#	182
#	19110
#	34847
#	48022
#	66600
#	80590
#	91492
#	107435
#	122995
#	139570
#	160042
#	174457
#	195052
#
# Disc length: 2848 seconds
#
# Revision: 0
# Processed by: cddbd v1.5.1PL2 Copyright (c) Steve Scherf et al.
# Submitted via: audiograbber 1.81.03
#
DISCID=a00b1e0d
DTITLE=Lari White - The Best of Lari White
DYEAR=1997
DGENRE=Country
TTITLE0=Amazing Grace
TTITLE1=Itty Bitty Single Solitary Piece of My Heart
TTITLE2=Lay Around And Love You
TTITLE3=Lead Me Not
TTITLE4=What A Woman Wants
TTITLE5=Wild At Heart
TTITLE6=Just Thinking
TTITLE7=That's My Baby
TTITLE8=That's How You know
TTITLE9=Now I Know
TTITLE10=Ready, Willing And Able
TTITLE11=I've Been Waiting For You Love
TTITLE12=Helping Me Get Over You (duet Travis Tritt)
EXTD=
EXTT0=
EXTT1=
EXTT2=
EXTT3=
EXTT4=
EXTT5=
EXTT6=
EXTT7=
EXTT8=
EXTT9=
EXTT10=
EXTT11=
EXTT12=
PLAYORDER=
